<?xml version="1.0" encoding="UTF-8"?>
<svg version="1.1" xmlns="http://www.w3.org/2000/svg" width="539" height="529">
<path d="M0 0 C1.3919458 0.28085449 1.3919458 0.28085449 2.81201172 0.56738281 C43.18831297 8.87951736 79.49879103 28.29927607 109 57 C109.9595459 57.92087402 109.9595459 57.92087402 110.93847656 58.86035156 C120.1200648 67.68998625 128.46204489 76.73273457 136 87 C136.84760437 88.1289452 137.69526066 89.25785143 138.54296875 90.38671875 C144.59523834 98.55260913 149.85237037 107.10828556 154.84472656 115.95654297 C155.90081213 117.82455569 156.97637478 119.67993237 158.0546875 121.53515625 C189.75827459 178.00319189 195.79422594 250.01946357 178.828125 312.07177734 C169.09262691 346.49617714 153.31080682 378.74015848 130 406 C129.04102188 407.14399105 128.08272649 408.28855466 127.125 409.43359375 C118.72514034 419.4234558 110.00307849 428.63085001 99.76953125 436.7890625 C97.95480999 438.23776804 96.15944774 439.71113988 94.38671875 441.2109375 C71.73401917 460.33988381 45.16546523 473.1925295 17 482 C16.10168457 482.28198242 15.20336914 482.56396484 14.27783203 482.85449219 C8.9006296 484.4997792 3.50396347 485.85240045 -2 487 C-2.73492676 487.16081055 -3.46985352 487.32162109 -4.22705078 487.48730469 C-18.02598401 490.35776689 -32.03027384 490.31186138 -46.0625 490.375 C-46.98795624 490.38294586 -47.91341248 490.39089172 -48.86691284 490.39907837 C-66.90784986 490.517862 -84.51626291 488.75764979 -101.9375 483.875 C-103.02393799 483.57424561 -104.11037598 483.27349121 -105.22973633 482.96362305 C-140.21793676 472.93528795 -171.68621581 454.23868699 -198.2421875 429.53515625 C-200.39121096 427.55963751 -202.56007074 425.66595636 -204.8125 423.8125 C-207.91549154 421.18804209 -210.51781551 418.26269141 -213.140625 415.1640625 C-214.38795401 413.71233924 -215.6703413 412.29007162 -216.984375 410.8984375 C-227.93563897 399.26771555 -236.99721505 385.78793069 -245 372 C-245.37157227 371.38350586 -245.74314453 370.76701172 -246.12597656 370.13183594 C-262.28064604 343.30425318 -272.28792983 312.88341164 -277 282 C-277.11714355 281.26088379 -277.23428711 280.52176758 -277.35498047 279.76025391 C-287.21413587 214.40855665 -269.59365574 146.03881174 -230.74609375 92.91796875 C-216.42854574 73.75201152 -200.20645782 56.30685123 -181 42 C-179.948125 41.18015625 -179.948125 41.18015625 -178.875 40.34375 C-151.66283711 19.230865 -120.44112169 6.10692611 -86.75 -0.375 C-86.08878143 -0.50246613 -85.42756287 -0.62993225 -84.74630737 -0.76126099 C-56.85786674 -6.07547319 -27.78865377 -5.77928575 0 0 Z M-168 50 C-169.54300781 51.11568359 -169.54300781 51.11568359 -171.1171875 52.25390625 C-199.83787267 73.56619953 -222.05031579 101.62267012 -238.90283203 132.96386719 C-239.8068513 134.64155314 -240.72738703 136.3103284 -241.65234375 137.9765625 C-270.34199299 191.85906162 -272.39994412 258.04519954 -255.37109375 315.6640625 C-244.21057115 351.51261704 -224.14514639 384.15518344 -198 411 C-197.14656006 411.88413574 -197.14656006 411.88413574 -196.27587891 412.78613281 C-157.81562196 452.51754275 -104.70430556 476.3167558 -49.27441406 477.35375977 C-18.92010503 477.52745254 10.19996946 472.32631574 38 460 C39.41386207 459.40056869 40.82791887 458.80159645 42.2421875 458.203125 C66.01456994 447.86134053 86.35359782 431.75182217 105 414 C106.08861328 412.97326172 106.08861328 412.97326172 107.19921875 411.92578125 C112.62078813 406.67463448 117.32290709 400.91446025 122 395 C122.80566406 393.9996875 123.61132812 392.999375 124.44140625 391.96875 C130.99737522 383.73612191 136.68853588 375.0810294 142 366 C142.3801123 365.35111816 142.76022461 364.70223633 143.15185547 364.03369141 C174.6199602 309.46622302 182.49353714 241.65323084 166.65234375 180.98828125 C158.71672596 151.79437326 146.28609236 124.17705278 128 100 C127.57493164 99.43071777 127.14986328 98.86143555 126.71191406 98.27490234 C119.88223812 89.16095931 112.40919181 80.77960129 104.51416016 72.57714844 C103.27253192 71.2838691 102.04616477 69.97595428 100.82421875 68.6640625 C85.95388589 53.06135778 66.31720895 40.20335815 47 31 C46.03964844 30.51789062 45.07929688 30.03578125 44.08984375 29.5390625 C29.32244888 22.33638474 13.09623909 17.23647907 -3 14 C-3.71945801 13.85046875 -4.43891602 13.7009375 -5.18017578 13.546875 C-61.14259436 2.48550664 -122.30954569 16.06022389 -168 50 Z " fill="#4E27A2" transform="translate(316,24)"/>
<path d="M0 0 C3.61630653 0.54492826 5.94165959 1.36431718 8.86328125 3.5546875 C9.57693848 4.0813501 10.2905957 4.6080127 11.02587891 5.15063477 C11.78046387 5.71967529 12.53504883 6.28871582 13.3125 6.875 C14.92978834 8.07063699 16.54830123 9.26461918 18.16796875 10.45703125 C18.97927246 11.05596191 19.79057617 11.65489258 20.62646484 12.27197266 C24.07313738 14.7812864 27.59383394 17.17433981 31.125 19.5625 C38.6620129 24.68510747 45.93403554 30.12903226 53.18408203 35.64746094 C55.06389145 37.04758788 56.9784651 38.38782892 58.90234375 39.7265625 C62 42 62 42 63 44 C63.33330277 49.59731289 63.39928992 55.1950716 63.45996094 60.80126953 C63.48650503 62.67327548 63.52736108 64.54513695 63.58300781 66.41650391 C64.0988117 83.97558674 64.0988117 83.97558674 59.6953125 89.0703125 C57.86767578 90.64892578 57.86767578 90.64892578 56 92 C54.78604496 93.07703005 53.57702689 94.15967349 52.375 95.25 C51.72273438 95.80300781 51.07046875 96.35601562 50.3984375 96.92578125 C47.19939899 99.69237644 44.10206025 102.56307537 41 105.4375 C40.41138184 105.98245117 39.82276367 106.52740234 39.21630859 107.08886719 C37.81007579 108.39171884 36.40492228 109.69573526 35 111 C31.98492204 109.6736245 30.20153869 108.35485683 28.125 105.8125 C24.59723536 101.63088243 20.88175908 97.6615799 17.125 93.6875 C12.19036334 88.44935303 7.56281507 83.10182738 3.07421875 77.4765625 C0.33989506 74.21185211 -2.67550619 71.30135013 -5.7265625 68.3359375 C-9.08594065 64.88420531 -12.05960921 61.15081421 -15.0546875 57.3828125 C-16.83270632 55.01498767 -16.83270632 55.01498767 -18.8203125 53.6171875 C-20 52 -20 52 -19.76025391 48.88232422 C-18.95474231 44.76888637 -17.64298454 41.10368511 -16.015625 37.265625 C-15.56941803 36.18761627 -15.56941803 36.18761627 -15.11419678 35.08782959 C-14.16698816 32.80533583 -13.20850143 30.52777082 -12.25 28.25 C-11.62169509 26.73727003 -10.99408507 25.22425124 -10.3671875 23.7109375 C-7.05412372 15.74054832 -3.64699571 7.8246951 0 0 Z " fill="#441D9E" transform="translate(261,166)"/>
<path d="M0 0 C0.99 0.495 0.99 0.495 2 1 C2.04670164 14.89923871 2.0818469 28.79846527 2.10362434 42.6977663 C2.11407483 49.1513217 2.12825713 55.60482449 2.15087891 62.05834961 C2.17256214 68.28286953 2.18455909 74.50733877 2.18975449 80.73189354 C2.19345838 83.11021918 2.20069084 85.48854195 2.21146011 87.86684608 C2.22591487 91.19034511 2.22798046 94.51363295 2.22705078 97.8371582 C2.23424133 98.8269014 2.24143188 99.81664459 2.24884033 100.83638 C2.246091 101.74081848 2.24334167 102.64525696 2.24050903 103.57710266 C2.24235262 104.36339208 2.24419621 105.14968149 2.24609566 105.95979786 C2 108 2 108 0 111 C-2.7043457 112.11572266 -2.7043457 112.11572266 -6.17578125 113.1640625 C-7.11997925 113.45440369 -7.11997925 113.45440369 -8.08325195 113.75061035 C-10.1566973 114.3856662 -12.23439508 115.00537925 -14.3125 115.625 C-15.74860524 116.0613043 -17.18439351 116.49865318 -18.61987305 116.93701172 C-21.58898785 117.84272154 -24.55964185 118.74313258 -27.53125 119.640625 C-31.85305583 120.95003542 -36.16225304 122.2974569 -40.46875 123.65625 C-41.80296187 124.07606202 -43.13719005 124.49582222 -44.47143555 124.91552734 C-46.99715253 125.71020735 -49.5218542 126.50790022 -52.04614258 127.30712891 C-53.75000122 127.83959229 -53.75000122 127.83959229 -55.48828125 128.3828125 C-56.48384033 128.69621582 -57.47939941 129.00961914 -58.50512695 129.33251953 C-61 130 -61 130 -64 130 C-63.42468302 123.01544995 -60.96228421 116.7937206 -58.5625 110.25 C-58.11801514 109.02297363 -57.67353027 107.79594727 -57.21557617 106.53173828 C-56.05082351 103.31963591 -54.8768116 100.11101166 -53.69897461 96.90368652 C-53.01878207 95.05115376 -52.34041962 93.19794936 -51.66210938 91.34472656 C-47.35801254 79.5971879 -43.00149604 67.87473861 -38.40600586 56.23779297 C-36.71524129 51.9300933 -35.14202207 47.59580499 -33.63867188 43.21923828 C-29.96379496 32.54000838 -26.92489875 24.04764213 -18.046875 16.58203125 C-14.20258137 13.32423883 -10.5453425 9.88857528 -6.875 6.4375 C-5.56004835 5.20686826 -4.24495638 3.97638644 -2.9296875 2.74609375 C-1.95300636 1.83085575 -0.97639586 0.91554233 0 0 Z " fill="#47209F" transform="translate(322,258)"/>
<path d="M0 0 C-4.0611172 11.60253867 -8.23429759 23.1587295 -12.5 34.6875 C-13.72692841 38.00637525 -14.95337261 41.32542926 -16.1796875 44.64453125 C-16.49167084 45.48854492 -16.80365417 46.33255859 -17.12509155 47.20214844 C-19.0672296 52.46037032 -20.99727027 57.72286043 -22.91741943 62.989151 C-24.18038271 66.45279804 -25.4466979 69.91521578 -26.71313477 73.37759399 C-27.31520919 75.0265485 -27.91566531 76.67609489 -28.5144043 78.32626343 C-29.35165874 80.63316599 -30.19476676 82.93785431 -31.0390625 85.2421875 C-31.28020782 85.91146774 -31.52135315 86.58074799 -31.76980591 87.27030945 C-33.52437786 92.03435486 -35.6705642 96.48840239 -38 101 C-41.12610718 99.50921226 -43.30195297 97.96897051 -45.75 95.5 C-46.36359375 94.8915625 -46.9771875 94.283125 -47.609375 93.65625 C-49 92 -49 92 -49 90 C-49.59425781 89.74347656 -50.18851563 89.48695313 -50.80078125 89.22265625 C-53.21062253 87.88290435 -54.44871988 86.5626757 -56.1875 84.4375 C-60.67602918 79.12848699 -65.58499274 74.25790039 -70.61328125 69.4609375 C-73.62995938 66.55994319 -75.74746933 64.1191851 -76.25396729 59.86875916 C-76.25555847 59.10503494 -76.25714966 58.34131073 -76.25878906 57.55444336 C-76.26509338 56.68351547 -76.27139771 55.81258759 -76.27789307 54.91526794 C-76.2738446 53.98287796 -76.26979614 53.05048798 -76.265625 52.08984375 C-76.26753845 51.12599258 -76.2694519 50.16214142 -76.27142334 49.16908264 C-76.27278288 47.1341221 -76.26910255 45.09915281 -76.26074219 43.06420898 C-76.25002784 39.94560335 -76.26065136 36.82757224 -76.2734375 33.70898438 C-76.27211609 31.73176956 -76.26955409 29.7545551 -76.265625 27.77734375 C-76.26967346 26.84292953 -76.27372192 25.90851532 -76.27789307 24.94578552 C-76.27158875 24.0780098 -76.26528442 23.21023407 -76.25878906 22.31616211 C-76.25719788 21.55323349 -76.25560669 20.79030487 -76.25396729 20.0042572 C-76 18 -76 18 -74 15 C-71.39786335 14.17084523 -68.91759367 13.52196707 -66.2578125 12.94921875 C-65.07604683 12.68000359 -65.07604683 12.68000359 -63.8704071 12.40534973 C-61.29108763 11.82099915 -58.70827676 11.25407561 -56.125 10.6875 C-54.35355196 10.28998743 -52.58231232 9.89154505 -50.8112793 9.4921875 C-45.54489807 8.30946224 -40.27354041 7.15034017 -35 6 C-34.23427673 5.83292542 -33.46855347 5.66585083 -32.67962646 5.49371338 C-24.92812724 3.80527864 -17.1711106 2.14395964 -9.40551758 0.52148438 C-7.03093428 0.03771869 -7.03093428 0.03771869 -4.8659668 -0.63085938 C-3 -1 -3 -1 0 0 Z " fill="#3C1997" transform="translate(290,286)"/>
<path d="M0 0 C3.53984265 0.56110729 4.83439623 1.61391692 7.01953125 4.40625 C9.92786054 7.89779008 13.01805062 10.86449752 16.44921875 13.84375 C34.45059882 29.8026827 44.147592 47.63303049 53.91894531 69.40966797 C55.75284913 73.48804951 57.68758224 77.50038168 59.6796875 81.50390625 C60.20965332 82.5717334 60.73961914 83.63956055 61.28564453 84.73974609 C62.22586991 86.63242385 63.16688272 88.52471076 64.10888672 90.41650391 C64.50092285 91.2316748 64.89295898 92.0468457 65.296875 92.88671875 C65.63041992 93.56951904 65.96396484 94.25231934 66.30761719 94.95581055 C67.13223538 97.39041143 67.12116364 99.44694875 67 102 C61.93210414 102.09984488 56.86479699 102.1719226 51.79614258 102.21972656 C50.07663991 102.23968148 48.35720367 102.26685558 46.63793945 102.30175781 C33.46743134 102.56218077 22.61676152 101.89228386 12.0703125 93.046875 C3.1748746 84.25214018 -0.63893856 74.15578409 -1.12698364 61.779953 C-1.12777924 60.68234146 -1.12857483 59.58472992 -1.12939453 58.45385742 C-1.13254669 57.19953415 -1.13569885 55.94521088 -1.13894653 54.65287781 C-1.13715739 53.30374109 -1.1351066 51.9546047 -1.1328125 50.60546875 C-1.13348692 49.20778893 -1.13445809 47.81010923 -1.13571167 46.41242981 C-1.13717972 43.49670281 -1.13506127 40.58100661 -1.13037109 37.6652832 C-1.12464774 33.92487001 -1.12797482 30.18452818 -1.13394356 26.44411755 C-1.13755074 23.56428994 -1.13641032 20.68447937 -1.13381577 17.80465126 C-1.1331483 16.42471623 -1.13396863 15.04477965 -1.13629532 13.66484642 C-1.13882722 11.74295455 -1.13428576 9.82105724 -1.12939453 7.89916992 C-1.12859894 6.80553635 -1.12780334 5.71190277 -1.12698364 4.58512878 C-1 2 -1 2 0 0 Z " fill="#3A1994" transform="translate(215,359)"/>
<path d="M0 0 C1.20842622 2.41685243 1.1332076 3.95827963 1.14526367 6.65820312 C1.15164352 7.62681274 1.15802338 8.59542236 1.16459656 9.59338379 C1.16570938 10.64537964 1.1668222 11.69737549 1.16796875 12.78125 C1.17296135 14.40613342 1.17296135 14.40613342 1.17805481 16.06384277 C1.18312731 18.36384659 1.18546304 20.66385779 1.18530273 22.96386719 C1.18747378 26.45780903 1.20558327 29.95142722 1.22460938 33.4453125 C1.22754644 35.68229059 1.22952914 37.91927018 1.23046875 40.15625 C1.23765427 41.192052 1.24483978 42.227854 1.25224304 43.29504395 C1.21431864 55.54555779 -1.32596871 65.05572494 -8.1875 75.25 C-14.34201262 81.26774568 -23.43081249 86.87893071 -32.234375 87.0703125 C-33.14703125 87.04710937 -34.0596875 87.02390625 -35 87 C-41.40882515 73.75241488 -47.74706083 60.47590884 -53.9375 47.125 C-54.73353638 45.40845215 -54.73353638 45.40845215 -55.5456543 43.65722656 C-56.55425545 41.4776913 -57.55984313 39.2967583 -58.56201172 37.11425781 C-59.52465505 35.02945673 -60.50038542 32.95065123 -61.48876953 30.87792969 C-61.94751465 29.90500977 -62.40625977 28.93208984 -62.87890625 27.9296875 C-63.28826416 27.07358887 -63.69762207 26.21749023 -64.11938477 25.33544922 C-65 23 -65 23 -65 19 C-64.04561035 18.70867187 -63.0912207 18.41734375 -62.10791016 18.1171875 C-59.24366549 17.2428177 -56.37950474 16.36817353 -53.51538086 15.4934082 C-50.2429435 14.49393583 -46.97028862 13.4951797 -43.69750977 12.49682617 C-36.10132986 10.17842322 -28.5074945 7.85361465 -20.92578125 5.48828125 C-19.13889893 4.93237305 -19.13889893 4.93237305 -17.31591797 4.36523438 C-15.10420428 3.67605173 -12.8935452 2.98347327 -10.68408203 2.28710938 C-9.7042334 1.98224609 -8.72438477 1.67738281 -7.71484375 1.36328125 C-6.87042725 1.09813721 -6.02601074 0.83299316 -5.15600586 0.55981445 C-3 0 -3 0 0 0 Z " fill="#5025A4" transform="translate(323,374)"/>
<path d="M0 0 C6.70413137 3.31178719 10.57846339 9.53376546 12.92578125 16.4453125 C13.97077511 20.63123581 14.10233821 24.72769057 14.12890625 29.01953125 C14.13460632 29.7434053 14.1403064 30.46727936 14.1461792 31.21308899 C14.15559529 32.74189814 14.16214965 34.27072728 14.16601562 35.79956055 C14.17567858 38.10828271 14.20671523 40.41609731 14.23828125 42.72460938 C14.3309777 55.66704549 12.72056071 65.25826127 3.73828125 75.0703125 C-5.90495921 84.34502147 -19.22646204 84.63996328 -31.88671875 84.80859375 C-35.07421875 84.4453125 -35.07421875 84.4453125 -36.59106445 83.40625 C-38.81034662 80.47204846 -39.82745124 77.15536576 -40.9921875 73.70703125 C-41.2542952 72.94864456 -41.51640289 72.19025787 -41.78645325 71.40888977 C-42.33781919 69.8057408 -42.88473149 68.20105413 -43.42749023 66.5949707 C-44.25667556 64.14769707 -45.10480353 61.70759287 -45.95507812 59.26757812 C-46.48943853 57.70612473 -47.02267863 56.14428741 -47.5546875 54.58203125 C-47.80776169 53.85682785 -48.06083588 53.13162445 -48.32157898 52.38444519 C-49.68883229 48.28925444 -50.52741246 44.7636526 -50.07421875 40.4453125 C-48.16796875 38.13671875 -48.16796875 38.13671875 -45.57421875 36.0078125 C-44.65511719 35.234375 -43.73601562 34.4609375 -42.7890625 33.6640625 C-41.89316406 32.931875 -40.99726563 32.1996875 -40.07421875 31.4453125 C-38.75667881 30.30527794 -37.44371208 29.15992305 -36.13671875 28.0078125 C-35.49863281 27.45222656 -34.86054688 26.89664063 -34.203125 26.32421875 C-31.63533889 24.05797082 -29.10474964 21.75307313 -26.57421875 19.4453125 C-18.53082455 12.12106633 -18.53082455 12.12106633 -15.109375 9.19140625 C-13.57489089 7.8748719 -12.06604844 6.52836509 -10.5703125 5.16796875 C-9.27287109 4.03681641 -9.27287109 4.03681641 -7.94921875 2.8828125 C-7.16289062 2.18027344 -6.3765625 1.47773437 -5.56640625 0.75390625 C-3.07421875 -0.5546875 -3.07421875 -0.5546875 0 0 Z " fill="#3E1A99" transform="translate(420.07421875,119.5546875)"/>
<path d="M0 0 C1.2813381 0.41134116 2.5636794 0.81958279 3.84741211 1.22338867 C6.90706569 2.28900793 9.95808714 3.37221062 13.00024414 4.48657227 C14.30002061 4.95685056 15.60421898 5.41506968 16.91235352 5.86157227 C29.21257458 10.06660621 29.21257458 10.06660621 31.5234375 14.41015625 C32.05642488 15.92637313 32.54176883 17.45954119 33 19 C33.66847095 20.75396152 34.33763597 22.50767809 35.01594543 24.25785828 C36.02645323 26.89365543 36.98681556 29.54653859 37.9465332 32.20117188 C38.69150521 34.26107471 39.44380244 36.31818969 40.19726562 38.375 C44.50636251 50.19703731 44.50636251 50.19703731 45 53 C43.36035966 54.63964034 41.44732874 54.21932257 39.18334961 54.30395508 C38.1539476 54.34261185 37.12454559 54.38126862 36.06394958 54.4210968 C31.28711511 54.55892195 26.51036451 54.65748666 21.73217773 54.73461914 C19.22864597 54.7860009 16.72546986 54.86070076 14.22338867 54.96020508 C-10.50159992 55.92552389 -10.50159992 55.92552389 -21.09233093 46.68521118 C-22.24062979 45.61789056 -23.37591951 44.53633366 -24.49520874 43.43862915 C-26.48609736 41.53527519 -28.65376042 39.99397114 -30.9296875 38.44921875 C-31.59419922 37.98209473 -32.25871094 37.5149707 -32.94335938 37.03369141 C-33.58080078 36.58944824 -34.21824219 36.14520508 -34.875 35.6875 C-35.93557617 34.9437915 -35.93557617 34.9437915 -37.01757812 34.18505859 C-38.39604872 33.21880251 -39.77523347 32.2535641 -41.15527344 31.28955078 C-42.76501935 30.16426254 -44.37110827 29.03374653 -45.9765625 27.90234375 C-51.26075741 24.18050368 -56.60421412 20.55809069 -62 17 C-61 14 -61 14 -59.05557251 12.97366333 C-58.20272675 12.66927338 -57.34988098 12.36488342 -56.47119141 12.05126953 C-55.50573395 11.70146027 -54.54027649 11.351651 -53.54556274 10.99124146 C-52.49154266 10.6254599 -51.43752258 10.25967834 -50.3515625 9.8828125 C-48.72811417 9.31250809 -48.72811417 9.31250809 -47.0718689 8.73068237 C-44.77235993 7.92912012 -42.47048445 7.13432037 -40.16650391 6.34570312 C-36.66337894 5.13822864 -33.17811079 3.88678106 -29.69140625 2.6328125 C-27.45408339 1.85920189 -25.21582762 1.08828301 -22.9765625 0.3203125 C-21.42589584 -0.24657791 -21.42589584 -0.24657791 -19.84390259 -0.82492065 C-12.27437219 -3.33723982 -7.39903354 -2.78621648 0 0 Z " fill="#391794" transform="translate(333,149)"/>
<path d="M0 0 C9.37552797 -1.22068357 9.37552797 -1.22068357 13.04296875 1.53515625 C14.80189434 3.62413196 16.39507406 5.79127911 18 8 C19.14197659 9.19084495 20.3085608 10.35864342 21.5 11.5 C23.79326036 13.75797943 25.96428028 16.05996504 28.0625 18.5 C31.56112375 22.55935126 35.21021006 26.46643998 38.875 30.375 C45.47320358 37.41719647 51.98930346 44.52115854 58.3125 51.8125 C63.40447418 57.66465042 68.72275775 63.3154829 74 69 C73.505 70.485 73.505 70.485 73 72 C70.84797668 72.79614258 70.84797668 72.79614258 67.96801758 73.39453125 C66.89211868 73.62487061 65.81621979 73.85520996 64.7077179 74.0925293 C63.5318663 74.33011963 62.35601471 74.56770996 61.14453125 74.8125 C59.93617111 75.06749268 58.72781097 75.32248535 57.48283386 75.58520508 C54.25301679 76.26431594 51.02123367 76.93183614 47.78790283 77.59387207 C44.55261999 78.25902183 41.32042319 78.93881819 38.08789062 79.6171875 C32.19645019 80.85167856 26.30230397 82.07244612 20.40664673 83.28662109 C15.55584998 84.3024165 10.71659514 85.37043609 5.87797546 86.44262695 C3 87 3 87 0 87 C-1.55457033 83.89085935 -1.13841401 80.59766883 -1.12939453 77.18554688 C-1.13114685 76.37892105 -1.13289917 75.57229523 -1.13470459 74.7412262 C-1.13911646 72.06704577 -1.13618744 69.39293114 -1.1328125 66.71875 C-1.13348573 64.86551908 -1.13445592 63.01228824 -1.13571167 61.15905762 C-1.13718774 57.27188274 -1.13503698 53.38473081 -1.13037109 49.49755859 C-1.12467386 44.50708947 -1.12795335 39.51667412 -1.13394356 34.52620697 C-1.13755161 30.69846184 -1.13640946 26.87072952 -1.13381577 23.04298401 C-1.13314717 21.20251967 -1.13397257 19.36205418 -1.13629532 17.52159119 C-1.13882582 14.95251367 -1.1349756 12.38352407 -1.12939453 9.81445312 C-1.13141876 9.04867447 -1.13344299 8.28289581 -1.13552856 7.49391174 C-1.11426426 2.22852852 -1.11426426 2.22852852 0 0 Z " fill="#4F26A1" transform="translate(215,209)"/>
<path d="M0 0 C2.39253645 1.40653865 4.44704853 2.76198373 6.625 4.4375 C7.53330566 5.11075317 7.53330566 5.11075317 8.45996094 5.79760742 C10.31910693 7.1827728 12.16181748 8.58716553 14 10 C15.04414063 10.80179688 16.08828125 11.60359375 17.1640625 12.4296875 C18.71648215 13.62839128 20.26884898 14.82718252 21.81616211 16.0324707 C26.52220468 19.68235771 31.34619943 23.15737981 36.1875 26.625 C42.6206301 31.23453383 48.91276248 35.93749845 55 41 C54 44 54 44 51.41210938 45.29785156 C50.23455078 45.7409668 49.05699219 46.18408203 47.84375 46.640625 C47.18612671 46.89233459 46.52850342 47.14404419 45.85095215 47.40338135 C44.37801149 47.96696065 42.903327 48.52599624 41.42724609 49.08129883 C37.93667032 50.40246526 34.4634751 51.767176 30.98803711 53.12756348 C27.14671009 54.62895636 23.3004771 56.11755463 19.45410156 57.60595703 C16.47612068 58.75924781 13.49979515 59.91674633 10.5234375 61.07421875 C8.60947559 61.815364 6.69541659 62.55625856 4.78125 63.296875 C3.46235779 63.81093903 3.46235779 63.81093903 2.11682129 64.33538818 C-2.54536757 66.13328695 -7.17039812 67.71504507 -12 69 C-19.0711244 62.11998707 -20.11048644 53.18487471 -20.3984375 43.6171875 C-20.40629759 41.03645848 -20.39829561 38.45563585 -20.375 35.875 C-20.38660156 34.58207031 -20.39820312 33.28914063 -20.41015625 31.95703125 C-20.37950601 21.9139705 -19.41909557 13.06972015 -13 5 C-12.5565625 4.42894531 -12.113125 3.85789062 -11.65625 3.26953125 C-11.1715625 2.70621094 -10.686875 2.14289063 -10.1875 1.5625 C-9.74792969 1.04816406 -9.30835937 0.53382812 -8.85546875 0.00390625 C-5.7048392 -1.70075016 -3.38334113 -0.85384003 0 0 Z " fill="#3B1996" transform="translate(126,122)"/>
<path d="M0 0 C2.69510309 0.35489719 3.77566104 0.74437229 5.59643555 2.8190918 C6.104729 3.60453369 6.61302246 4.38997559 7.13671875 5.19921875 C7.710271 6.07255859 8.28382324 6.94589844 8.87475586 7.84570312 C9.47296143 8.78349609 10.07116699 9.72128906 10.6875 10.6875 C11.61091187 12.1115918 11.61091187 12.1115918 12.55297852 13.56445312 C13.79281197 15.47821826 15.02845568 17.39470463 16.25976562 19.31396484 C17.79151314 21.67820252 19.35731648 24.01080492 20.953125 26.33203125 C21.37891846 26.96085205 21.80471191 27.58967285 22.2434082 28.23754883 C23.36382504 29.8912575 24.49218533 31.53957645 25.62109375 33.1875 C27.26479313 36.54008798 26.93271654 37.48256586 26 41 C25.49095317 42.47233754 24.94199649 43.93137457 24.35766602 45.37548828 C23.85693321 46.62170456 23.85693321 46.62170456 23.34608459 47.89309692 C22.98566574 48.77657806 22.62524689 49.6600592 22.25390625 50.5703125 C21.69714455 51.94737869 21.69714455 51.94737869 21.12913513 53.3522644 C20.34529678 55.28795154 19.5592829 57.22275896 18.77124023 59.15673828 C17.56491491 62.11906979 16.36693129 65.08467498 15.16992188 68.05078125 C14.40674485 69.93249244 13.64308925 71.81400962 12.87890625 73.6953125 C12.52051163 74.5828421 12.162117 75.4703717 11.79286194 76.38479614 C11.45588791 77.20930267 11.11891388 78.0338092 10.77172852 78.88330078 C10.47718277 79.60768341 10.18263702 80.33206604 9.87916565 81.07839966 C9 83 9 83 7 86 C3.99125902 84.66196542 2.01614357 83.22415624 -0.20703125 80.8046875 C-0.79000977 80.17530273 -1.37298828 79.54591797 -1.97363281 78.89746094 C-2.58045898 78.23004883 -3.18728516 77.56263672 -3.8125 76.875 C-4.44124023 76.19211914 -5.06998047 75.50923828 -5.71777344 74.80566406 C-9.30200945 70.90117423 -12.84630586 66.9653821 -16.30078125 62.9453125 C-18.46857305 60.46356465 -20.70567719 58.04927954 -22.9375 55.625 C-26.24113958 51.98187599 -29.51880096 48.32394519 -32.6875 44.5625 C-33.35136719 43.78003906 -34.01523438 42.99757812 -34.69921875 42.19140625 C-36 40 -36 40 -35.79077148 38.08862305 C-34.82677078 35.5424588 -33.60516819 34.27774466 -31.6484375 32.390625 C-30.61783203 31.38128906 -30.61783203 31.38128906 -29.56640625 30.3515625 C-28.84324219 29.65804687 -28.12007812 28.96453125 -27.375 28.25 C-22.55858527 23.58437542 -17.91300934 18.89757257 -13.59082031 13.76513672 C-11.46743344 11.4090767 -9.08981586 9.46234305 -6.64453125 7.453125 C-4.10337172 5.20772988 -2.09222631 2.66283349 0 0 Z " fill="#48209E" transform="translate(230,126)"/>
<path d="M0 0 C30.03 0 60.06 0 91 0 C92.54368047 4.63104141 90.47312087 8.05627098 88.8125 12.5 C88.50763672 13.36753906 88.20277344 14.23507813 87.88867188 15.12890625 C87.58123047 15.96292969 87.27378906 16.79695313 86.95703125 17.65625 C86.67835205 18.41744141 86.39967285 19.17863281 86.11254883 19.96289062 C83.39962992 24.93032432 78.39153601 26.09768837 73.296875 27.7421875 C72.54142395 27.99243683 71.7859729 28.24268616 71.00762939 28.5005188 C68.59068049 29.29907663 66.17042022 30.08703485 63.75 30.875 C62.16905217 31.39647295 60.58832079 31.91860262 59.0078125 32.44140625 C55.10975391 33.72801772 51.20511129 34.99320883 47.2980957 36.25231934 C45.00564047 36.99816488 42.720441 37.76356816 40.43554688 38.53222656 C39.00403432 39.00364429 37.57239935 39.47469048 36.140625 39.9453125 C35.49180359 40.16855194 34.84298218 40.39179138 34.17449951 40.62179565 C30.4341119 41.83273609 27.74584358 42.35087776 24 41 C22.30371444 38.97062564 20.98929126 37.11326752 19.625 34.875 C18.76756722 33.5230313 17.90944571 32.17149926 17.05078125 30.8203125 C16.57721191 30.06524414 16.10364258 29.31017578 15.61572266 28.53222656 C13.78022045 25.6555525 11.88453694 22.82392451 9.98046875 19.9921875 C8.59107251 17.91150729 7.20174943 15.83077823 5.8125 13.75 C5.12816895 12.7379248 4.44383789 11.72584961 3.73876953 10.68310547 C3.1095459 9.73064941 2.48032227 8.77819336 1.83203125 7.796875 C0.97702026 6.51828613 0.97702026 6.51828613 0.10473633 5.21386719 C-1 3 -1 3 0 0 Z " fill="#4A249F" transform="translate(236,118)"/>
<path d="M0 0 C33.33 0 66.66 0 101 0 C101.495 0.99 101.495 0.99 102 2 C97.40235258 7.50422578 92.48153629 12.60637159 87.35253906 17.61035156 C84.00041414 20.9051752 81.00550761 24.37994771 78 28 C76.34663411 29.67986214 74.67941795 31.34618293 73 33 C72.01727512 34.04614802 71.03827036 35.09579982 70.0625 36.1484375 C69.04180669 37.22409122 68.02097196 38.29961076 67 39.375 C66.49210937 39.93316406 65.98421875 40.49132812 65.4609375 41.06640625 C63.9375 42.6484375 63.9375 42.6484375 61 45 C57.27927637 44.71536875 54.96130848 43.56042134 52.0234375 41.33203125 C51.28005127 40.77563965 50.53666504 40.21924805 49.77075195 39.64599609 C48.98015381 39.04094238 48.18955566 38.43588867 47.375 37.8125 C45.66816367 36.52968853 43.96112675 35.24714391 42.25390625 33.96484375 C41.38266113 33.30597168 40.51141602 32.64709961 39.61376953 31.96826172 C35.5401233 28.90066076 31.42481017 25.89044051 27.3125 22.875 C20.47199129 17.84431833 13.66581752 12.76981596 6.89770508 7.64208984 C3.58772061 5.10450161 3.58772061 5.10450161 0 3 C0 2.01 0 1.02 0 0 Z " fill="#451D9D" transform="translate(129,117)"/>
<path d="M0 0 C25.74 0 51.48 0 78 0 C75.84605869 4.30788261 73.31405524 6.52719828 69.6875 9.5 C64.72037809 13.65817589 59.86174358 17.89326823 55.125 22.3125 C51.03768502 26.11833123 46.94823866 29.91036924 42.69140625 33.52734375 C40.98593643 34.973083 40.98593643 34.973083 39.46484375 36.56640625 C38 38 38 38 35 40 C29.18494591 39.68369999 24.22834648 38.26289776 18.81640625 36.19921875 C17.70494484 35.78274834 17.70494484 35.78274834 16.57102966 35.35786438 C15.0206171 34.77323158 13.47196479 34.1839108 11.92504883 33.59008789 C9.55088543 32.68306277 7.16778873 31.80302936 4.78320312 30.92382812 C3.27282525 30.35056886 1.76303656 29.77575428 0.25390625 29.19921875 C-0.45954453 28.93864182 -1.1729953 28.67806488 -1.9080658 28.40959167 C-6.71305236 26.52563316 -6.71305236 26.52563316 -8.04077148 24.09350586 C-7.99153789 21.56549349 -7.46578836 19.68381121 -6.6015625 17.3046875 C-6.28703125 16.42425781 -5.9725 15.54382813 -5.6484375 14.63671875 C-5.31070312 13.72535156 -4.97296875 12.81398437 -4.625 11.875 C-4.295 10.95589844 -3.965 10.03679687 -3.625 9.08984375 C-1.23028274 2.46056548 -1.23028274 2.46056548 0 0 Z " fill="#461E9E" transform="translate(333,117)"/>
<path d="M0 0 C1.7734375 1.34765625 1.7734375 1.34765625 3.375 3.0625 C3.96152344 3.68640625 4.54804688 4.3103125 5.15234375 4.953125 C5.76207031 5.62859375 6.37179688 6.3040625 7 7 C7.66128906 7.71671875 8.32257813 8.4334375 9.00390625 9.171875 C14 14.70290404 14 14.70290404 14 17 C15.485 17.495 15.485 17.495 17 18 C18.56221756 19.73768402 20.05443479 21.53913218 21.5 23.375 C24.46118416 27.1838298 24.46118416 27.1838298 27.78125 30.6640625 C29 32 29 32 29 35 C18.53312412 35.09311726 8.06634852 35.16397523 -2.40085888 35.20724869 C-7.26242504 35.22802898 -12.12370558 35.25616966 -16.98510742 35.30175781 C-21.68599017 35.34555947 -26.38660004 35.36920878 -31.08767128 35.37950897 C-32.87163901 35.38683927 -34.65559361 35.40115171 -36.43944359 35.42292023 C-48.95061627 35.56937549 -60.10071433 34.92122786 -71 28 C-70.74543762 26.11798096 -70.74543762 26.11798096 -70 24 C-68.30595398 22.9274292 -68.30595398 22.9274292 -66.07299805 22.11230469 C-65.23669357 21.79807556 -64.4003891 21.48384644 -63.53874207 21.16009521 C-62.62232437 20.83398254 -61.70590668 20.50786987 -60.76171875 20.171875 C-59.81174515 19.81917542 -58.86177155 19.46647583 -57.88301086 19.10308838 C-54.82312763 17.97038465 -51.75583434 16.85958216 -48.6875 15.75 C-45.70037982 14.65447204 -42.71496127 13.55442806 -39.73001099 12.45300293 C-37.7515199 11.72405411 -35.7717577 10.99854608 -33.79074097 10.27648926 C-28.89802493 8.48446757 -24.04562353 6.632616 -19.23291016 4.63476562 C-18.32185013 4.25789612 -17.4107901 3.88102661 -16.47212219 3.49273682 C-14.75836738 2.77732607 -13.04917607 2.05084599 -11.34562683 1.3114624 C-4.26001183 -1.64732581 -4.26001183 -1.64732581 0 0 Z " fill="#3C1D93" transform="translate(190,169)"/>
<path d="M0 0 C2.475 0.495 2.475 0.495 5 1 C3.68 1.33 2.36 1.66 1 2 C1.60908203 3.80210937 1.60908203 3.80210937 2.23046875 5.640625 C4.34354567 11.98356942 6.32980052 18.36531307 8.3125 24.75 C8.50975677 25.38495392 8.70701355 26.01990784 8.9102478 26.67410278 C12.66872002 38.78789966 16.20867684 50.95664353 19.60498047 63.17675781 C20.15067324 65.13940979 20.70021355 67.10099083 21.25 69.0625 C21.69085938 70.65771484 21.69085938 70.65771484 22.140625 72.28515625 C22.90247439 74.94608857 22.90247439 74.94608857 24.05078125 77.07421875 C25.14981976 79.30395532 25.52815404 81.3017213 25.9375 83.75 C26.66368405 87.61735227 27.67275481 91.06589017 29.13671875 94.70703125 C31.02128789 99.71265155 32.46223096 104.87930715 34 110 C30.77629571 108.9254319 30.25431079 108.3944369 28.1875 105.875 C24.63618621 101.67525099 20.90160609 97.68283619 17.125 93.6875 C12.19038163 88.44933256 7.56281716 83.10183001 3.07421875 77.4765625 C0.33989506 74.21185211 -2.67550619 71.30135013 -5.7265625 68.3359375 C-9.08594065 64.88420531 -12.05960921 61.15081421 -15.0546875 57.3828125 C-16.83270632 55.01498767 -16.83270632 55.01498767 -18.8203125 53.6171875 C-20 52 -20 52 -19.76025391 48.88232422 C-18.95474231 44.76888637 -17.64298454 41.10368511 -16.015625 37.265625 C-15.56941803 36.18761627 -15.56941803 36.18761627 -15.11419678 35.08782959 C-14.16698816 32.80533583 -13.20850143 30.52777082 -12.25 28.25 C-11.62169509 26.73727003 -10.99408507 25.22425124 -10.3671875 23.7109375 C-7.05412372 15.74054832 -3.64699571 7.8246951 0 0 Z " fill="#754EBA" transform="translate(261,166)"/>
<path d="M0 0 C0.99 0.33 1.98 0.66 3 1 C3.05099583 7.93763058 3.08585714 14.87521224 3.10986328 21.81298828 C3.11987842 24.16977749 3.13349442 26.52655441 3.15087891 28.88330078 C3.17532519 32.28421068 3.18652831 35.68495531 3.1953125 39.0859375 C3.20563507 40.12801361 3.21595764 41.17008972 3.22659302 42.2437439 C3.2284472 54.52153474 0.68829899 64.03452722 -6.1875 74.25 C-11.3042116 79.2530069 -18.90192184 84.55514152 -26.23828125 85.1953125 C-26.92277344 85.17210937 -27.60726563 85.14890625 -28.3125 85.125 C-29.529375 85.08375 -30.74625 85.0425 -32 85 C-32.16277393 80.73721035 -31.72105892 77.39519963 -30.3828125 73.3515625 C-29.85095337 71.73785767 -29.85095337 71.73785767 -29.30834961 70.09155273 C-28.91784424 68.94759033 -28.52733887 67.80362793 -28.125 66.625 C-27.5208728 64.83654663 -27.5208728 64.83654663 -26.90454102 63.01196289 C-22.81113138 51.10536697 -18.04241202 39.53111326 -13 28 C-12.62423828 27.1342334 -12.24847656 26.2684668 -11.86132812 25.37646484 C-8.13511798 16.80319258 -4.33181764 8.28876644 0 0 Z " fill="#401D9A" transform="translate(321,375)"/>
<path d="M0 0 C3.81479336 1.70686353 7.07622895 4.11477424 10.4375 6.5625 C11.68708753 7.46151109 12.9370976 8.35993512 14.1875 9.2578125 C14.82042969 9.71317383 15.45335937 10.16853516 16.10546875 10.63769531 C19.04163601 12.74901146 21.98186501 14.85350467 24.9375 16.9375 C25.93652344 17.64777344 26.93554688 18.35804688 27.96484375 19.08984375 C30.28187197 20.5480507 32.26161426 21.59377521 34.7578125 22.6171875 C38.05362099 24.02286967 39.22091279 24.96508653 41 28 C40.67 28.66 40.34 29.32 40 30 C37.81433105 30.68261719 37.81433105 30.68261719 34.88867188 31.296875 C33.79663452 31.53051758 32.70459717 31.76416016 31.57946777 32.00488281 C30.38793091 32.25077148 29.19639404 32.49666016 27.96875 32.75 C26.74853149 33.0087793 25.52831299 33.26755859 24.27111816 33.53417969 C21.01411578 34.22338679 17.75574384 34.90521754 14.49645996 35.58349609 C11.21255172 36.26858903 7.93060122 36.9628467 4.6484375 37.65625 C-1.24768309 38.9012932 -7.14560039 40.13750843 -13.04443359 41.36962891 C-16.40481983 42.08634105 -19.75216911 42.8519483 -23.09484863 43.64697266 C-26.09861306 44.20357461 -28.95409952 44.12961279 -32 44 C-27.80488937 36.44539021 -22.81825338 29.67827004 -17.48730469 22.90234375 C-14.64827694 19.27107254 -11.85910906 15.60146884 -9.0625 11.9375 C-8.5068335 11.21103271 -7.95116699 10.48456543 -7.37866211 9.73608398 C-4.9048693 6.50124078 -2.4339314 3.26502993 0 0 Z " fill="#3A1996" transform="translate(248,251)"/>
<path d="M0 0 C-0.52096106 6.13311275 -1.94522843 11.10777393 -4.30859375 16.76953125 C-4.63537613 17.57235031 -4.96215851 18.37516937 -5.29884338 19.20231628 C-5.98612486 20.8856748 -6.67800324 22.5671632 -7.37426758 24.24682617 C-8.44006391 26.81868695 -9.49168404 29.39599276 -10.54101562 31.97460938 C-11.21272846 33.61491658 -11.885227 35.2549023 -12.55859375 36.89453125 C-12.87324081 37.66328079 -13.18788788 38.43203033 -13.5120697 39.22407532 C-14.81643837 42.36370434 -16.10816532 45.16224798 -18 48 C-21.00874098 46.66196542 -22.98385643 45.22415624 -25.20703125 42.8046875 C-25.79000977 42.17530273 -26.37298828 41.54591797 -26.97363281 40.89746094 C-27.88387207 39.89634277 -27.88387207 39.89634277 -28.8125 38.875 C-29.44124023 38.19211914 -30.06998047 37.50923828 -30.71777344 36.80566406 C-34.29887563 32.90458807 -37.83862611 28.97106484 -41.29296875 24.95703125 C-43.51067448 22.41453566 -45.78719498 19.92853765 -48.0625 17.4375 C-49.32900391 16.04144531 -49.32900391 16.04144531 -50.62109375 14.6171875 C-52.06283388 13.03103662 -53.51146421 11.45106217 -54.97265625 9.8828125 C-59 5.44606974 -59 5.44606974 -59 1 C-51.55769906 1.54701632 -44.31839056 2.54198409 -37 4 C-37 4.66 -37 5.32 -37 6 C-28.91570657 5.65744519 -21.4747704 4.00917337 -13.69921875 1.9375 C-9.02397435 0.75264397 -4.82678625 0 0 0 Z " fill="#411D99" transform="translate(255,164)"/>
<path d="M0 0 C3.33162313 3.09729013 5.07826973 6.76169812 7.0625 10.796875 C7.45076462 11.57468826 7.83902924 12.35250153 8.23905945 13.15388489 C9.49911188 15.682798 10.75005175 18.21607933 12 20.75 C12.85891944 22.48309633 13.71805084 24.21608763 14.57739258 25.94897461 C16.68041165 30.1951721 18.77444254 34.44573416 20.86578369 38.69769287 C21.8956122 40.78810676 22.92965178 42.87634492 23.96630859 44.96337891 C25.55085778 48.15792651 27.12246257 51.35835958 28.6875 54.5625 C29.13802734 55.4690332 29.58855469 56.37556641 30.05273438 57.30957031 C30.45169922 58.13682617 30.85066406 58.96408203 31.26171875 59.81640625 C31.60162842 60.51193604 31.94153809 61.20746582 32.29174805 61.92407227 C33.12788632 64.37484227 33.12481905 66.42816663 33 69 C27.85881945 69.04966586 22.71778049 69.08584495 17.57641602 69.10986328 C15.82964645 69.11988268 14.0828935 69.13350195 12.33618164 69.15087891 C9.81652715 69.17530669 7.29709561 69.18652389 4.77734375 69.1953125 C4.00414291 69.20563507 3.23094208 69.21595764 2.43431091 69.22659302 C-2.42129596 69.22758391 -6.39049673 68.54272894 -11 67 C-11 66.67 -11 66.34 -11 66 C-9.35 66 -7.7 66 -6 66 C-5.95101562 65.25806396 -5.90203125 64.51612793 -5.8515625 63.75170898 C-5.24574638 55.21348811 -4.32137868 46.74174779 -3.27050781 38.24975586 C-2.99737087 36.04124157 -2.72883204 33.83220263 -2.4609375 31.62304688 C-1.14071194 20.82294413 -1.14071194 20.82294413 -0.44750977 16.76879883 C0.10409125 13.3559744 0.09509224 10.07977726 0.0625 6.625 C0.04896484 4.75714844 0.04896484 4.75714844 0.03515625 2.8515625 C0.02355469 1.91054688 0.01195312 0.96953125 0 0 Z " fill="#542AA6" transform="translate(249,392)"/>
<path d="M0 0 C0.495 0.99 0.495 0.99 1 2 C-1 5 -1 5 -4 6 C-5.54436126 7.52344853 -5.54436126 7.52344853 -7.0625 9.4375 C-9.09782593 11.91615368 -11.0947531 14.08095177 -13.53768921 16.1680603 C-18.50016089 20.46146296 -21.60088044 23.56223267 -22.13525391 30.27587891 C-22.13369159 32.59337668 -22.07840792 34.91130314 -21.9765625 37.2265625 C-21.96241302 38.45539154 -21.94826355 39.68422058 -21.9336853 40.95028687 C-21.87805968 44.844421 -21.75267399 48.73262943 -21.625 52.625 C-21.57479847 55.27726018 -21.52917831 57.92961128 -21.48828125 60.58203125 C-21.37850288 67.05668189 -21.21154985 73.52791764 -21 80 C-21.66 80 -22.32 80 -23 80 C-23.2165625 80.69867188 -23.433125 81.39734375 -23.65625 82.1171875 C-25.33867691 85.72658011 -27.76823575 88.29441224 -30.5 91.125 C-33.21524837 93.98057129 -35.80460488 96.70690732 -38 100 C-38.66 100 -39.32 100 -40 100 C-40.24234375 100.54785156 -40.4846875 101.09570312 -40.734375 101.66015625 C-44.02724612 107.74790254 -49.02976965 113.6887774 -54.5 117.9375 C-57.1267116 119.75703709 -57.1267116 119.75703709 -57.875 122.3125 C-57.91625 122.869375 -57.9575 123.42625 -58 124 C-56.68 124.33 -55.36 124.66 -54 125 C-56.97 125.495 -56.97 125.495 -60 126 C-59.42468302 119.01544995 -56.96228421 112.7937206 -54.5625 106.25 C-54.11801514 105.02297363 -53.67353027 103.79594727 -53.21557617 102.53173828 C-52.05082351 99.31963591 -50.8768116 96.11101166 -49.69897461 92.90368652 C-49.01878207 91.05115376 -48.34041962 89.19794936 -47.66210938 87.34472656 C-43.35801254 75.5971879 -39.00149604 63.87473861 -34.40600586 52.23779297 C-32.71524129 47.9300933 -31.14202207 43.59580499 -29.63867188 39.21923828 C-25.33151643 26.70260048 -21.37960512 18.64481156 -11 10 C-8.94021183 8.16550116 -6.90734221 6.30230145 -4.875 4.4375 C-3.47894531 3.16712891 -3.47894531 3.16712891 -2.0546875 1.87109375 C-1.37664062 1.25363281 -0.69859375 0.63617188 0 0 Z " fill="#6E46B3" transform="translate(318,262)"/>
<path d="M0 0 C0.68052429 0.23368286 1.36104858 0.46736572 2.06219482 0.70812988 C3.86136263 1.3331371 5.64028498 2.01549422 7.41796875 2.69921875 C8.04608963 2.9391304 8.67421051 3.17904205 9.32136536 3.42622375 C11.27866705 4.17508168 13.23309986 4.93110665 15.1875 5.6875 C16.53431979 6.20425955 17.881324 6.72053872 19.22851562 7.23632812 C22.48781638 8.48536882 25.74459234 9.74084193 29 11 C29 11.33 29 11.66 29 12 C28.39056549 12.03536362 27.78113098 12.07072723 27.15322876 12.10716248 C20.82677043 12.47512551 14.50069307 12.84917455 8.17480469 13.22680664 C5.81194176 13.36705084 3.44898527 13.50572768 1.0859375 13.64282227 C-2.30494424 13.8398177 -5.69545275 14.04239397 -9.0859375 14.24609375 C-10.14743011 14.3065538 -11.20892273 14.36701385 -12.30258179 14.42930603 C-13.28344757 14.48929276 -14.26431335 14.54927948 -15.27490234 14.61108398 C-16.14094086 14.66215805 -17.00697937 14.71323212 -17.89926147 14.76585388 C-20.05528562 14.88373326 -20.05528562 14.88373326 -22 16 C-24.69893181 16.08675538 -27.37169231 16.11557897 -30.0703125 16.09765625 C-31.26465408 16.09553383 -31.26465408 16.09553383 -32.48312378 16.09336853 C-35.0304538 16.08776345 -37.57769647 16.07521014 -40.125 16.0625 C-41.85025915 16.05748565 -43.57551967 16.05292263 -45.30078125 16.04882812 C-49.53388791 16.03779237 -53.76692914 16.02052436 -58 16 C-57.67 16.99 -57.34 17.98 -57 19 C-59.475 18.01 -59.475 18.01 -62 17 C-61 14 -61 14 -59.05557251 12.97366333 C-58.20272675 12.66927338 -57.34988098 12.36488342 -56.47119141 12.05126953 C-55.50573395 11.70146027 -54.54027649 11.351651 -53.54556274 10.99124146 C-52.49154266 10.6254599 -51.43752258 10.25967834 -50.3515625 9.8828125 C-48.72811417 9.31250809 -48.72811417 9.31250809 -47.0718689 8.73068237 C-44.77235993 7.92912012 -42.47048445 7.13432037 -40.16650391 6.34570312 C-36.66337894 5.13822864 -33.17811079 3.88678106 -29.69140625 2.6328125 C-27.45408339 1.85920189 -25.21582762 1.08828301 -22.9765625 0.3203125 C-21.42589584 -0.24657791 -21.42589584 -0.24657791 -19.84390259 -0.82492065 C-12.28778206 -3.3327891 -7.38092832 -2.82227394 0 0 Z " fill="#6239A9" transform="translate(333,149)"/>
<path d="M0 0 C-0.66 1.32 -1.32 2.64 -2 4 C-2 3.34 -2 2.68 -2 2 C-3.32 2 -4.64 2 -6 2 C-6.33 2.99 -6.66 3.98 -7 5 C-7.7425 5.0825 -8.485 5.165 -9.25 5.25 C-12.06113808 5.76463131 -12.06113808 5.76463131 -13.6875 7.75 C-15.95074863 9.95207974 -17.55924722 10.86000807 -20.375 12.1875 C-28.36786574 16.0060501 -36.02609121 20.94824184 -43.046875 26.33984375 C-46 28 -46 28 -48.7734375 28.0625 C-53.3529671 26.55447088 -57.41605347 24.33110885 -61.625 22 C-63.30253561 21.07940119 -64.98215237 20.16258215 -66.6640625 19.25 C-67.40092285 18.84265625 -68.1377832 18.4353125 -68.89697266 18.015625 C-70.93048697 17.03357026 -72.79529931 16.458249 -75 16 C-66.56087 12.9094796 -57.88789577 11.08482367 -49.125 9.1875 C-46.71858792 8.66206786 -44.31244159 8.13542984 -41.90629578 7.60877991 C-40.28933854 7.25506701 -38.67224239 6.90198855 -37.05500793 6.54954529 C-31.94213131 5.43346214 -26.83783015 4.28474145 -21.73828125 3.109375 C-20.49739746 2.82553955 -19.25651367 2.5417041 -17.97802734 2.24926758 C-15.66319492 1.71852576 -13.34964814 1.18213681 -11.03759766 0.6394043 C-10.01327637 0.40648682 -8.98895508 0.17356934 -7.93359375 -0.06640625 C-7.04728271 -0.27209229 -6.16097168 -0.47777832 -5.24780273 -0.68969727 C-3 -1 -3 -1 0 0 Z " fill="#673FAB" transform="translate(290,286)"/>
<path d="M0 0 C0.99 0.33 1.98 0.66 3 1 C2.34 1.99 1.68 2.98 1 4 C0.50731573 6.2374507 0.10178502 8.49453896 -0.25390625 10.7578125 C-0.41257423 11.75154373 -0.41257423 11.75154373 -0.57444763 12.76535034 C-0.79713946 14.16854479 -1.01629868 15.57230379 -1.23217773 16.9765625 C-1.55828324 19.0975739 -1.89430033 21.21681195 -2.23242188 23.3359375 C-3.31949976 30.20972213 -4.31355372 37.07383415 -5 44 C-7.31 44 -9.62 44 -12 44 C-12 43.34 -12 42.68 -12 42 C-12.99128906 42.0309375 -13.98257813 42.061875 -15.00390625 42.09375 C-19.16887055 41.99603823 -22.88670399 41.38250904 -26.9375 40.5 C-27.62134766 40.35691406 -28.30519531 40.21382812 -29.00976562 40.06640625 C-30.67449514 39.71716229 -32.33744875 39.35947054 -34 39 C-34.33 39.66 -34.66 40.32 -35 41 C-35.7109375 39.23925781 -35.7109375 39.23925781 -36 37 C-34.6640625 35.11230469 -34.6640625 35.11230469 -32.625 33.171875 C-31.88636719 32.45386719 -31.14773437 31.73585937 -30.38671875 30.99609375 C-29.59910156 30.25488281 -28.81148437 29.51367188 -28 28.75 C-26.47672221 27.28900273 -24.9558673 25.82547492 -23.4375 24.359375 C-22.69032715 23.63927246 -21.9431543 22.91916992 -21.17333984 22.17724609 C-18.48804089 19.48712072 -16.01131399 16.65803348 -13.56884766 13.74755859 C-11.45625996 11.39432132 -9.08252036 9.45634855 -6.64453125 7.453125 C-4.10337172 5.20772988 -2.09222631 2.66283349 0 0 Z " fill="#744DB9" transform="translate(230,126)"/>
<path d="M0 0 C0 4.01577487 -1.91205367 6.33273401 -4.0625 9.5625 C-4.67387817 10.49860107 -4.67387817 10.49860107 -5.29760742 11.45361328 C-7.72610864 15.1507062 -10.23864135 18.77719323 -12.8125 22.375 C-15.24196676 25.78848418 -17.13757908 29.16873176 -18.91796875 32.94921875 C-20.68276755 36.29405402 -22.93541492 39.28263045 -25.125 42.359375 C-30.38594507 49.76853931 -34.65537773 55.88644908 -36 65 C-38.41037575 61.38443638 -39.67813353 57.76157137 -41.125 53.6875 C-41.40214844 52.94048828 -41.67929687 52.19347656 -41.96484375 51.42382812 C-43.46283895 47.22132436 -44.75893586 43.50216188 -44 39 C-42.09375 36.69140625 -42.09375 36.69140625 -39.5 34.5625 C-38.58089844 33.7890625 -37.66179687 33.015625 -36.71484375 32.21875 C-35.81894531 31.4865625 -34.92304688 30.754375 -34 30 C-32.68246006 28.85996544 -31.36949333 27.71461055 -30.0625 26.5625 C-29.42441406 26.00691406 -28.78632813 25.45132813 -28.12890625 24.87890625 C-25.56112014 22.61265832 -23.03053089 20.30776063 -20.5 18 C-13.77571435 11.87012634 -6.91816679 5.90926747 0 0 Z " fill="#764FB7" transform="translate(414,121)"/>
<path d="M0 0 C6.0139875 3.80885875 11.8088362 7.9370456 17.5625 12.125 C18.28953125 12.6396582 19.0165625 13.15431641 19.765625 13.68457031 C20.44238281 14.18311523 21.11914062 14.68166016 21.81640625 15.1953125 C22.73595093 15.86071045 22.73595093 15.86071045 23.67407227 16.53955078 C25 18 25 18 25 22 C13.43586513 26.6522774 1.8474715 31.24206675 -9.765625 35.77075195 C-11.77809755 36.55753257 -13.78913982 37.3479802 -15.79882812 38.1418457 C-18.73229084 39.30005281 -21.67021128 40.44619493 -24.609375 41.58984375 C-25.50928162 41.94803696 -26.40918823 42.30623016 -27.33636475 42.67527771 C-28.58477142 43.15687096 -28.58477142 43.15687096 -29.85839844 43.64819336 C-30.5881488 43.93431992 -31.31789917 44.22044647 -32.06976318 44.51524353 C-34 45 -34 45 -37 44 C-36.20722656 43.52433594 -35.41445312 43.04867187 -34.59765625 42.55859375 C-34.04883789 42.22923828 -33.50001953 41.89988281 -32.93457031 41.56054688 C-31.66201242 40.7971449 -30.38921721 40.03413841 -29.11621094 39.27148438 C-24.58605972 36.55630425 -20.0627215 33.83011528 -15.54296875 31.09765625 C-13.27864931 29.73176506 -11.01432639 28.36587966 -8.75 27 C-7.64277588 26.3289624 -6.53555176 25.6579248 -5.39477539 24.96655273 C-3.8303772 24.02404663 -3.8303772 24.02404663 -2.234375 23.0625 C-0.83010254 22.21365234 -0.83010254 22.21365234 0.60253906 21.34765625 C3 20 3 20 6 19 C5.74337755 17.55989519 5.46909179 16.1229313 5.1875 14.6875 C5.03667969 13.88699219 4.88585937 13.08648437 4.73046875 12.26171875 C3.91102344 9.72450574 2.87072012 8.83091757 1 7 C0.3125 3.3125 0.3125 3.3125 0 0 Z " fill="#7955B7" transform="translate(155,144)"/>
<path d="M0 0 C1.7734375 1.34765625 1.7734375 1.34765625 3.375 3.0625 C3.96152344 3.68640625 4.54804688 4.3103125 5.15234375 4.953125 C5.76207031 5.62859375 6.37179688 6.3040625 7 7 C7.99193359 8.07507813 7.99193359 8.07507813 9.00390625 9.171875 C14 14.70290404 14 14.70290404 14 17 C14.99 17.33 15.98 17.66 17 18 C18.6875 20.5625 18.6875 20.5625 20 23 C15.02979929 22.53765575 12.75733642 21.19373595 9 18 C7.9275 17.46375 6.855 16.9275 5.75 16.375 C3 15 3 15 2 13 C0.18533883 11.94824948 0.18533883 11.94824948 -1.9375 11 C-4.48615488 9.81586997 -5.98757159 9.01242841 -8 7 C-9.66014616 6.63557767 -11.32706064 6.30027117 -13 6 C-13.33 5.67 -13.66 5.34 -14 5 C-14.7425 5.350625 -15.485 5.70125 -16.25 6.0625 C-19.21122875 7.0720098 -20.12062561 6.87980884 -23 6 C-20.11255688 4.79133415 -17.21400173 3.61197063 -14.3125 2.4375 C-13.49587891 2.09525391 -12.67925781 1.75300781 -11.83789062 1.40039062 C-4.04641247 -1.72250953 -4.04641247 -1.72250953 0 0 Z " fill="#6A46AC" transform="translate(190,169)"/>
<path d="M0 0 C33.33 0 66.66 0 101 0 C101.495 0.99 101.495 0.99 102 2 C101.01 2.99 100.02 3.98 99 5 C99 3.68 99 2.36 99 1 C67.32 1.33 35.64 1.66 3 2 C2.67 2.66 2.34 3.32 2 4 C1.34 3.67 0.68 3.34 0 3 C0 2.01 0 1.02 0 0 Z " fill="#6C569D" transform="translate(129,117)"/>
<path d="M0 0 C25.74 0 51.48 0 78 0 C76 4 76 4 74 5 C74 3.68 74 2.36 74 1 C49.58 1 25.16 1 0 1 C0 0.67 0 0.34 0 0 Z " fill="#5733A6" transform="translate(333,117)"/>
<path d="M0 0 C1.73783825 2.60675737 2.50215905 4.01295431 3 7 C1.33101862 8.66898138 -0.69729448 8.16155407 -2.99121094 8.19287109 C-4.58857086 8.21696548 -4.58857086 8.21696548 -6.21820068 8.24154663 C-11.10281883 8.28584896 -15.9872983 8.32707389 -20.87207031 8.35009766 C-23.45028716 8.36665382 -26.02845817 8.39393892 -28.60644531 8.43212891 C-32.31599848 8.48683506 -36.02447299 8.50876479 -39.734375 8.5234375 C-40.8866156 8.54610687 -42.0388562 8.56877625 -43.22601318 8.59213257 C-52.13564352 8.56856652 -52.13564352 8.56856652 -55.26660156 5.46728516 C-55.83862305 4.65308105 -56.41064453 3.83887695 -57 3 C-55.35 3 -53.7 3 -52 3 C-51.67 4.32 -51.34 5.64 -51 7 C-33.84 7 -16.68 7 1 7 C0.505 3.535 0.505 3.535 0 0 Z " fill="#5D43A2" transform="translate(375,195)"/>
<path d="M0 0 C0.33 0.66 0.66 1.32 1 2 C-1 5 -1 5 -4 6 C-5.54436126 7.52344853 -5.54436126 7.52344853 -7.0625 9.4375 C-11.41707889 14.58636904 -16.19141362 19.27849064 -21 24 C-21.33 22.68 -21.66 21.36 -22 20 C-14.7029631 13.29224272 -7.38196846 6.6143744 0 0 Z " fill="#7055AE" transform="translate(318,262)"/>
<path d="M0 0 C-0.66 1.32 -1.32 2.64 -2 4 C-2 3.34 -2 2.68 -2 2 C-3.32 2 -4.64 2 -6 2 C-6.33 2.99 -6.66 3.98 -7 5 C-8.093125 4.814375 -9.18625 4.62875 -10.3125 4.4375 C-13.93624133 3.7421932 -13.93624133 3.7421932 -17 5 C-17.99 4.34 -18.98 3.68 -20 3 C-17.23132003 2.30259196 -14.46063138 1.61677147 -11.6875 0.9375 C-10.90181641 0.73833984 -10.11613281 0.53917969 -9.30664062 0.33398438 C-8.54931641 0.15029297 -7.79199219 -0.03339844 -7.01171875 -0.22265625 C-6.31522217 -0.39547119 -5.61872559 -0.56828613 -4.90112305 -0.74633789 C-3 -1 -3 -1 0 0 Z " fill="#8164B0" transform="translate(290,286)"/>
<path d="M0 0 C-2.51830747 3.12270126 -3.7261549 3.94523098 -7.75 4.75 C-9.35875 4.87375 -9.35875 4.87375 -11 5 C-10.67 5.99 -10.34 6.98 -10 8 C-12.475 7.01 -12.475 7.01 -15 6 C-14.67 5.01 -14.34 4.02 -14 3 C-11.34765625 1.796875 -11.34765625 1.796875 -8.0625 0.75 C-6.44021484 0.21632812 -6.44021484 0.21632812 -4.78515625 -0.328125 C-2 -1 -2 -1 0 0 Z " fill="#8162B4" transform="translate(286,160)"/>
<path d="M0 0 C6.93 0 13.86 0 21 0 C19 4 19 4 17 5 C17 3.68 17 2.36 17 1 C11.39 1 5.78 1 0 1 C0 0.67 0 0.34 0 0 Z " fill="#5F3DA3" transform="translate(390,117)"/>
<path d="M0 0 C0.95582656 2.55654815 1.17802782 3.60341769 0.0390625 6.140625 C-0.42757813 6.83671875 -0.89421875 7.5328125 -1.375 8.25 C-1.83648437 8.95640625 -2.29796875 9.6628125 -2.7734375 10.390625 C-3.17820312 10.92171875 -3.58296875 11.4528125 -4 12 C-4.33 12 -4.66 12 -5 12 C-5.3125 8.8125 -5.3125 8.8125 -5 5 C-2.5 2.0625 -2.5 2.0625 0 0 Z " fill="#6740AC" transform="translate(408,128)"/>
<path d="M0 0 C0.70125 0.12375 1.4025 0.2475 2.125 0.375 C1.50625 0.4575 0.8875 0.54 0.25 0.625 C-2.0096633 1.15405978 -2.0096633 1.15405978 -2.8125 3.125 C-3.163125 3.8675 -3.51375 4.61 -3.875 5.375 C-6.375 8.125 -6.375 8.125 -8.875 10.375 C-9.535 10.375 -10.195 10.375 -10.875 10.375 C-9.00554874 5.51442673 -5.30449457 0.6918906 0 0 Z " fill="#6749A7" transform="translate(121.875,120.625)"/>
<path d="M0 0 C5.61 0 11.22 0 17 0 C17.33 0.66 17.66 1.32 18 2 C17.01 2.99 16.02 3.98 15 5 C15 3.68 15 2.36 15 1 C10.05 1 5.1 1 0 1 C0 0.67 0 0.34 0 0 Z " fill="#725F9F" transform="translate(213,117)"/>
<path d="M0 0 C0.66 0.99 1.32 1.98 2 3 C1.2575 3.886875 0.515 4.77375 -0.25 5.6875 C-2.53640616 8.4298846 -4.77951375 11.20383213 -7 14 C-6.44010697 10.00987629 -5.24330232 7.4744948 -2.9375 4.1875 C-2.38964844 3.39730469 -1.84179688 2.60710937 -1.27734375 1.79296875 C-0.64505859 0.90544922 -0.64505859 0.90544922 0 0 Z " fill="#552BA7" transform="translate(386,166)"/>
<path d="M0 0 C-0.66 1.32 -1.32 2.64 -2 4 C-2 3.34 -2 2.68 -2 2 C-3.32 2 -4.64 2 -6 2 C-6.33 2.99 -6.66 3.98 -7 5 C-7.66 4.67 -8.32 4.34 -9 4 C-8.25 2.0625 -8.25 2.0625 -7 0 C-4.04680182 -1.23843794 -3.12561472 -1.04187157 0 0 Z " fill="#846EB6" transform="translate(290,286)"/>
<path d="M0 0 C0.66 0.33 1.32 0.66 2 1 C-2.30769231 6.78461538 -2.30769231 6.78461538 -5.8125 7.875 C-6.8953125 7.936875 -6.8953125 7.936875 -8 8 C-5.33333333 5.33333333 -2.66666667 2.66666667 0 0 Z " fill="#9B85C4" transform="translate(399,134)"/>
<path d="M0 0 C0.98120464 3.05263664 0.98120464 4.94736336 0 8 C1.32 8.33 2.64 8.66 4 9 C2.02 9.33 0.04 9.66 -2 10 C-1.54177532 6.53058454 -1.10868317 3.32604951 0 0 Z " fill="#876FB3" transform="translate(260,378)"/>
<path d="M0 0 C0.33 0.66 0.66 1.32 1 2 C-0.65 3.98 -2.3 5.96 -4 8 C-4.99 7.67 -5.98 7.34 -7 7 C-4.69 4.69 -2.38 2.38 0 0 Z " fill="#7B60AF" transform="translate(114,84)"/>
<path d="M0 0 C1.32 0 2.64 0 4 0 C3.67 1.65 3.34 3.3 3 5 C2.01 5 1.02 5 0 5 C0 3.35 0 1.7 0 0 Z " fill="#40248B" transform="translate(235,205)"/>
<path d="M0 0 C0.8971875 0.309375 0.8971875 0.309375 1.8125 0.625 C0.8225 0.955 -0.1675 1.285 -1.1875 1.625 C-1.868125 2.305625 -2.54875 2.98625 -3.25 3.6875 C-4.2090625 4.6465625 -4.2090625 4.6465625 -5.1875 5.625 C-5.8475 5.625 -6.5075 5.625 -7.1875 5.625 C-5.69046729 2.17030914 -4.27938051 -0.73360809 0 0 Z " fill="#542AA0" transform="translate(279.1875,290.375)"/>
<path d="M0 0 C0.33 0.66 0.66 1.32 1 2 C-1.12055614 5.1808342 -2.63050557 6.31525278 -6 8 C-6.66 7.67 -7.32 7.34 -8 7 C-5.36 4.69 -2.72 2.38 0 0 Z " fill="#7E60B3" transform="translate(318,262)"/>
<path d="M0 0 C3.0916909 2.52956528 3.90931332 5.22454612 5 9 C4.01 8.67 3.02 8.34 2 8 C1.26953125 6.15234375 1.26953125 6.15234375 0.8125 3.9375 C0.65394531 3.20402344 0.49539062 2.47054688 0.33203125 1.71484375 C0.22246094 1.14894531 0.11289063 0.58304687 0 0 Z " fill="#745CAA" transform="translate(249,392)"/>
</svg>
